P2 24 7 200
100 100 100 100 100 100 100 100 100 100 100 100 100 100 100 100 100 100 100 100 100 100 100 100
100 118 118 118 118 100 100 142 142 142 142 100 100 166 166 166 166 100 100 190 190 190 190 100
100 118 100 100 100 100 100 142 100 100 100 100 100 166 100 100 100 100 100 190 100 100 190 100
100 118 118 118 100 100 100 142 142 142 100 100 100 166 166 166 100 100 100 190 190 190 190 100
100 118 100 100 100 100 100 142 100 100 100 100 100 166 100 100 100 100 100 190 100 100 100 100
100 118 100 100 100 100 100 142 142 142 142 100 100 166 166 166 166 100 100 190 100 100 100 100
100 100 100 100 100 100 100 100 100 100 100 100 100 100 100 100 100 100 100 100 100 100 100 100 